<?xml version="1.0" standalone="no"?>
<!DOCTYPE svg PUBLIC "-//W3C//DTD SVG 20010904//EN"
 "http://www.w3.org/TR/2001/REC-SVG-20010904/DTD/svg10.dtd">
<svg version="1.0" xmlns="http://www.w3.org/2000/svg"
 width="500.000000pt" height="500.000000pt" viewBox="0 0 500.000000 500.000000"
 preserveAspectRatio="xMidYMid meet">
<metadata>
Created by potrace 1.14, written by Peter Selinger 2001-2017
</metadata>
<g transform="translate(0.000000,500.000000) scale(0.100000,-0.100000)"
fill="#000000" stroke="none">
<path d="M1774 4906 c-56 -48 -25 -138 48 -140 44 -2 56 -10 122 -86 100 -116
170 -284 201 -490 14 -87 19 -189 8 -148 -4 16 -9 15 -46 -11 -107 -75 -198
-201 -243 -338 -26 -79 -29 -101 -28 -213 0 -108 4 -136 27 -207 30 -90 101
-204 166 -268 41 -39 52 -59 28 -49 -18 7 -231 -69 -352 -126 -495 -231 -916
-605 -1192 -1059 -192 -314 -290 -608 -262 -783 29 -181 181 -264 409 -224
307 54 567 236 717 502 69 122 145 280 233 484 59 138 182 446 195 488 15 52
16 7 1 -110 -26 -210 -26 -206 -7 -211 14 -4 14 -5 -1 -6 -15 -1 -18 -11 -18
-53 0 -29 -3 -90 -7 -135 -6 -82 -6 -83 18 -84 17 -1 19 -3 7 -6 -16 -4 -18
-17 -17 -101 0 -131 14 -253 29 -262 10 -6 10 -8 0 -12 -21 -7 27 -268 49
-268 13 0 13 -2 3 -9 -39 -24 158 -566 213 -587 7 -3 12 -11 9 -17 -7 -18 119
-170 174 -210 90 -66 129 -80 229 -85 87 -4 96 -3 159 27 81 38 148 93 212
174 98 124 207 341 180 358 -10 7 -9 9 4 9 13 0 25 25 48 98 65 202 122 488
100 502 -9 6 -9 9 0 12 19 6 31 152 33 391 2 184 0 219 -13 227 -12 8 -12 10
-1 10 16 0 10 117 -14 265 -9 50 -18 106 -21 125 -3 19 -4 33 -1 30 3 -3 31
-72 62 -155 153 -398 336 -793 439 -948 118 -178 312 -320 536 -392 112 -36
282 -46 358 -21 182 61 233 234 151 510 -49 166 -175 413 -309 611 -202 296
-511 589 -827 782 -149 91 -375 200 -513 247 l-115 39 43 46 c93 98 152 228
172 373 20 144 -12 297 -90 430 -41 69 -139 175 -191 205 -35 21 -37 44 -13
184 34 201 111 369 225 491 45 48 61 59 77 54 25 -8 77 16 86 39 20 54 -16
125 -64 125 -43 0 -89 -38 -90 -74 0 -10 -30 -51 -67 -90 -38 -40 -83 -98
-101 -128 -86 -145 -143 -335 -160 -533 -6 -66 -10 -83 -11 -49 l-1 51 -52 17
c-95 31 -209 41 -305 27 -47 -6 -107 -20 -134 -30 l-49 -19 0 33 c0 44 -27
185 -51 268 -43 146 -134 303 -225 387 -25 23 -44 49 -44 61 0 29 -53 79 -84
79 -14 0 -37 -11 -52 -24z"/>
</g>
</svg>
