<?xml version="1.0" standalone="no"?>
<!DOCTYPE svg PUBLIC "-//W3C//DTD SVG 20010904//EN"
 "http://www.w3.org/TR/2001/REC-SVG-20010904/DTD/svg10.dtd">
<svg version="1.0" xmlns="http://www.w3.org/2000/svg"
 width="512.000000pt" height="512.000000pt" viewBox="0 0 512.000000 512.000000"
 preserveAspectRatio="xMidYMid meet">
<metadata>
Created by potrace 1.14, written by Peter Selinger 2001-2017
</metadata>
<g transform="translate(0.000000,512.000000) scale(0.100000,-0.100000)"
fill="#000000" stroke="none">
<path d="M2925 5104 c-27 -14 -102 -88 -148 -146 -23 -29 -142 -209 -143 -217
0 -3 -21 -49 -46 -101 -39 -82 -61 -141 -109 -298 -6 -18 -12 -45 -14 -60 -2
-15 -4 -27 -5 -27 -4 0 -20 -92 -26 -150 -3 -27 -7 -59 -9 -70 -2 -11 -4 -26
-4 -32 -1 -14 -81 -14 -81 0 0 5 -3 6 -8 3 -4 -2 -27 0 -52 5 -25 6 -51 10
-57 11 -7 1 -13 4 -13 7 0 4 -11 8 -26 9 -14 1 -33 6 -43 12 -10 5 -21 6 -25
3 -3 -3 -6 -1 -6 6 0 7 -3 10 -7 8 -5 -3 -19 0 -33 6 -14 5 -29 11 -35 12 -66
15 -132 27 -171 30 -27 3 -61 6 -76 8 -16 3 -28 -1 -28 -7 0 -7 -3 -7 -8 -1
-10 14 -84 16 -75 2 4 -6 1 -7 -7 -2 -14 9 -90 14 -90 6 0 -4 -24 -7 -53 -8
-45 -2 -92 -9 -92 -13 0 -1 -13 -3 -30 -5 -16 -2 -41 -6 -55 -10 -14 -3 -36
-8 -50 -11 -37 -8 -42 -10 -80 -25 -19 -7 -38 -12 -42 -11 -5 1 -8 -2 -8 -6 0
-5 -6 -9 -12 -9 -7 0 -40 -12 -73 -27 -33 -16 -62 -28 -65 -29 -3 0 -9 -5 -15
-9 -5 -5 -44 -30 -86 -57 -82 -53 -258 -221 -260 -248 0 -5 -8 -17 -18 -28
-10 -11 -26 -33 -35 -50 -9 -16 -21 -37 -26 -45 -9 -13 -52 -107 -55 -120 -1
-3 -7 -18 -14 -35 -7 -16 -15 -41 -17 -54 -3 -13 -9 -32 -15 -43 -5 -10 -8
-18 -5 -18 3 0 0 -15 -5 -32 -5 -18 -12 -46 -14 -63 -3 -16 -9 -57 -15 -90 -9
-56 -7 -561 3 -630 2 -16 8 -59 11 -95 4 -36 9 -77 12 -91 2 -15 7 -47 10 -70
3 -24 8 -53 9 -64 4 -24 31 -149 39 -185 3 -14 8 -38 11 -55 2 -16 8 -45 14
-62 5 -18 7 -33 4 -33 -3 0 0 -7 7 -15 7 -8 10 -15 7 -15 -3 0 -1 -15 4 -32 6
-18 12 -40 14 -48 2 -8 4 -16 5 -17 2 -2 4 -7 5 -13 1 -5 4 -11 5 -12 1 -2 4
-16 6 -32 2 -16 7 -32 11 -35 4 -3 9 -12 11 -19 1 -7 4 -20 6 -30 1 -9 6 -24
9 -32 8 -17 84 -228 101 -277 6 -18 14 -33 18 -33 5 0 8 -5 8 -12 0 -27 145
-326 192 -395 15 -23 28 -46 28 -51 0 -6 4 -12 9 -14 5 -1 11 -10 13 -18 2 -8
6 -17 9 -20 3 -3 32 -43 64 -90 32 -47 63 -88 69 -92 6 -4 8 -8 3 -8 -8 0 12
-24 103 -124 67 -75 122 -127 223 -211 33 -28 142 -88 203 -112 58 -22 87 -27
181 -28 156 -3 300 26 468 96 32 13 36 14 75 23 14 3 36 8 50 11 32 7 133 8
190 1 48 -6 122 -28 235 -71 39 -15 81 -29 95 -32 14 -2 45 -9 70 -15 79 -18
268 -20 330 -2 62 17 220 93 220 106 0 4 7 8 15 8 9 0 18 7 21 15 4 8 12 15
19 15 7 0 16 7 19 16 4 9 9 15 11 12 9 -9 201 188 265 272 14 18 31 39 38 47
7 7 11 13 7 13 -5 0 40 64 73 105 4 6 11 18 15 28 3 9 11 17 17 17 5 0 10 9
10 20 0 11 5 20 10 20 6 0 10 4 10 10 0 5 15 33 34 62 52 82 194 380 231 485
11 29 22 53 27 53 4 0 5 7 2 15 -4 8 -1 22 6 30 7 8 9 15 4 15 -5 0 -4 4 3 8
6 4 14 19 17 34 2 14 10 36 16 48 6 12 14 33 16 47 3 14 6 31 7 37 1 6 5 13 9
16 3 3 8 19 10 35 2 17 6 32 9 35 5 4 53 183 65 243 2 12 7 36 10 52 4 17 8
39 9 50 2 11 4 20 5 20 2 0 7 21 14 65 4 19 8 46 11 60 6 32 12 71 20 140 4
30 9 62 10 71 3 15 12 128 20 239 6 79 6 404 0 440 -2 19 -7 57 -10 84 -5 41
-13 80 -40 186 -2 8 -4 17 -5 20 -1 3 -3 10 -4 15 -1 6 -6 19 -10 30 -21 54
-28 75 -26 81 1 4 -3 10 -10 14 -6 4 -12 13 -14 21 -12 72 -186 298 -296 384
-46 36 -135 92 -158 99 -12 4 -22 12 -22 17 0 5 -6 9 -14 9 -8 0 -36 11 -62
24 -44 23 -46 24 -23 32 13 4 26 8 29 9 3 0 11 4 18 8 6 5 12 6 12 2 0 -3 15
2 33 12 17 9 34 18 37 18 42 11 60 19 60 28 0 6 3 8 6 5 10 -10 334 164 342
184 2 4 8 8 14 8 12 0 148 93 148 101 0 9 -158 118 -180 124 -3 1 -40 18 -82
38 -42 20 -85 38 -95 40 -10 2 -25 7 -33 10 -59 22 -199 52 -290 62 -64 6
-298 8 -308 1 -4 -2 -32 -7 -62 -10 -56 -6 -219 -48 -268 -68 -15 -6 -29 -12
-32 -13 -53 -20 -70 -29 -70 -37 0 -5 -4 -7 -9 -3 -8 4 -81 -32 -131 -65 -8
-6 -23 -13 -32 -16 -10 -4 -18 -10 -18 -15 0 -5 -6 -9 -13 -9 -8 0 -22 -9 -32
-20 -10 -11 -22 -17 -26 -14 -5 3 -9 1 -9 -3 0 -5 -23 -26 -51 -48 -28 -21
-85 -72 -128 -112 -76 -73 -100 -89 -83 -55 5 9 8 25 7 35 -2 9 0 17 5 17 4 0
7 10 6 23 -1 12 2 24 6 27 4 3 9 17 12 30 3 14 14 48 24 77 11 28 17 54 14 57
-3 3 0 6 6 6 7 0 12 7 12 15 0 16 75 160 96 186 8 8 14 19 14 23 0 10 111 149
126 159 7 4 23 24 35 44 24 38 34 118 17 138 -4 5 -17 22 -29 37 -33 44 -111
60 -164 32z m-147 -998 c9 -3 35 -8 57 -12 22 -3 44 -8 49 -12 8 -4 62 -12
104 -15 6 0 12 -2 12 -4 0 -10 -130 -49 -195 -58 -11 -2 -20 -4 -20 -5 0 -1
-17 -3 -38 -6 l-37 -5 4 53 c2 29 5 55 6 58 1 3 2 8 1 12 -1 7 24 4 57 -6z"/>
</g>
</svg>
